<?xml version="1.0" standalone="no"?>
<!DOCTYPE svg PUBLIC "-//W3C//DTD SVG 20010904//EN"
 "http://www.w3.org/TR/2001/REC-SVG-20010904/DTD/svg10.dtd">
<svg version="1.0" xmlns="http://www.w3.org/2000/svg"
 width="434.000000pt" height="434.000000pt" viewBox="0 0 434.000000 434.000000"
 preserveAspectRatio="xMidYMid meet">
<metadata>
Created by potrace 1.14, written by Peter Selinger 2001-2017
</metadata>
<g transform="translate(0.000000,434.000000) scale(0.100000,-0.100000)"
fill="#000000" stroke="none">
<path d="M2998 4335 c-2 -1 -28 -6 -58 -9 -195 -23 -434 -113 -605 -228 -175
-118 -196 -184 -134 -433 41 -166 124 -344 227 -490 102 -143 285 -313 437
-405 187 -114 496 -212 618 -196 112 15 199 113 199 226 0 115 -73 358 -158
518 -36 69 -49 102 -39 102 20 0 171 48 225 72 156 68 312 167 361 228 42 52
56 117 41 186 -14 70 -44 109 -124 166 -170 121 -367 202 -603 248 -53 11
-378 23 -387 15z"/>
<path d="M1379 4238 c-151 -19 -266 -121 -311 -273 -4 -16 -8 -420 -8 -896 l0
-867 -83 -22 c-227 -60 -449 -212 -599 -409 -59 -78 -151 -261 -173 -346 -47
-176 -55 -404 -21 -548 55 -226 162 -415 319 -563 91 -85 96 -89 179 -142 230
-144 506 -198 775 -150 267 47 506 189 679 401 l31 38 39 -48 c157 -196 381
-332 639 -389 84 -19 299 -25 385 -11 338 53 639 262 803 559 57 101 110 252
122 343 4 28 9 59 11 70 10 48 3 247 -11 321 -56 298 -223 553 -471 721 -116
79 -257 138 -400 168 -87 19 -279 26 -352 14 -86 -14 -117 -20 -152 -29 -19
-5 -37 -6 -41 -2 -7 7 -31 51 -134 247 -32 61 -74 142 -95 180 -21 39 -61 115
-90 170 -29 55 -70 132 -90 170 -21 39 -59 111 -85 160 -26 50 -62 117 -80
150 -18 33 -56 105 -85 160 -29 55 -69 132 -90 170 -49 92 -152 287 -211 400
-26 49 -68 113 -93 141 -76 86 -190 128 -307 112z m149 -670 c23 -46 64 -123
90 -173 26 -49 74 -139 106 -200 32 -60 75 -141 96 -180 20 -38 60 -113 87
-165 100 -189 169 -320 272 -512 21 -40 64 -122 96 -183 32 -60 67 -125 78
-144 l20 -34 -64 -61 c-35 -33 -83 -83 -105 -109 l-41 -49 -17 26 c-48 75
-260 266 -293 266 -6 0 -13 4 -15 8 -6 16 -177 92 -263 117 -49 14 -91 28 -94
31 -7 6 -8 1444 -1 1444 3 0 24 -37 48 -82z"/>
</g>
</svg>
